<svg width="35" height="35" viewBox="0 0 35 35" fill="none" xmlns="http://www.w3.org/2000/svg">
<path d="M17.5 35C27.165 35 35 27.165 35 17.5C35 7.83502 27.165 0 17.5 0C7.83502 0 0 7.83502 0 17.5C0 27.165 7.83502 35 17.5 35Z" fill="white"/>
<path d="M17.9624 8.99462L9 17.5361L17.5415 26.4985L26.5039 17.957L17.9624 8.99462Z" stroke="#D97D54" stroke-width="2.00028" stroke-miterlimit="10" stroke-linecap="round" stroke-linejoin="round"/>
<path d="M9.4751 17.1923C11.1847 17.4792 12.9412 17.1797 14.4591 16.3423C15.8591 15.5423 16.9841 14.0423 19.8421 14.6923C19.3113 14.9096 18.8672 15.2964 18.5791 15.7923C18.1141 16.8423 19.7091 17.2923 20.7721 17.3923C22.3896 17.4589 24.0097 17.4255 25.6231 17.2923" stroke="#D97D54" stroke-width="2" stroke-miterlimit="10" stroke-linecap="round" stroke-linejoin="round"/>
</svg>
